<svg width="1922" height="453" viewBox="0 0 1922 453" fill="none" xmlns="http://www.w3.org/2000/svg">
<g clip-path="url(#clip0_3970_19297)">
<rect width="1922" height="453" fill="#005700"/>
<path d="M1642.71 -49.5808C1750.88 -171.966 1937.24 -183.768 2058.92 -76.2086C2180.61 31.3504 2191.78 217.743 2083.6 340.128C1975.42 462.513 1789.07 474.315 1667.38 366.756C1545.7 259.197 1534.53 72.8041 1642.71 -49.5808Z" stroke="#004900" stroke-width="41"/>
<path d="M1785.71 -49.5808C1893.88 -171.966 2080.24 -183.768 2201.92 -76.2086C2323.61 31.3504 2334.78 217.743 2226.6 340.128C2118.42 462.513 1932.07 474.315 1810.38 366.756C1688.7 259.197 1677.53 72.8041 1785.71 -49.5808Z" stroke="#004900" stroke-width="41"/>
<path d="M178.039 282.869C276.941 305.913 339.296 411.332 313.844 520.571C288.391 629.81 185.862 696.811 86.9606 673.768C-11.9406 650.724 -74.296 545.304 -48.8435 436.066C-23.3911 326.827 79.1381 259.825 178.039 282.869Z" stroke="#004900" stroke-width="41"/>
<path d="M78.0394 -5.13084C176.941 17.913 239.296 123.332 213.844 232.571C188.391 341.81 85.8619 408.811 -13.0394 385.768C-111.941 362.724 -174.296 257.304 -148.844 148.066C-123.391 38.8268 -20.8619 -28.1747 78.0394 -5.13084Z" stroke="#004900" stroke-width="41"/>
</g>
<defs>
<clipPath id="clip0_3970_19297">
<rect width="1922" height="453" fill="white"/>
</clipPath>
</defs>
</svg>
