<svg width="61" height="60" viewBox="0 0 61 60" fill="none" xmlns="http://www.w3.org/2000/svg">
<path d="M15.0798 33.2643C18.5616 33.2643 21.3841 30.455 21.3841 26.9896C21.3841 23.5241 18.5616 20.7148 15.0798 20.7148C11.598 20.7148 8.77539 23.5241 8.77539 26.9896C8.77539 30.455 11.598 33.2643 15.0798 33.2643Z" fill="url(#paint0_linear_3190_17133)"/>
<path d="M27.2995 49.002H2.95502C2.1791 49.002 1.50017 48.3262 1.59716 47.4574C2.37308 40.7 8.09549 35.3906 15.1758 35.3906C22.256 35.3906 27.9784 40.7 28.7544 47.4574C28.7544 48.3262 28.0754 49.002 27.2995 49.002Z" fill="#C2C2C2"/>
<path d="M32.4402 25.0594C36.6183 25.0594 40.0054 21.6882 40.0054 17.5297C40.0054 13.3712 36.6183 10 32.4402 10C28.262 10 24.875 13.3712 24.875 17.5297C24.875 21.6882 28.262 25.0594 32.4402 25.0594Z" fill="url(#paint1_linear_3190_17133)"/>
<path d="M44.6608 43.6895H20.3163C19.5404 43.6895 18.8615 43.0137 18.9585 42.1449C19.7344 35.3875 25.4568 30.0781 32.5371 30.0781C39.6173 30.0781 45.3398 35.3875 46.1157 42.1449C46.1157 43.0137 45.4367 43.6895 44.6608 43.6895Z" stroke="url(#paint2_linear_3190_17133)" stroke-width="4" stroke-miterlimit="10" stroke-linecap="round" stroke-linejoin="round"/>
<path d="M48.9289 29.5965C51.6607 29.5965 53.8753 27.3923 53.8753 24.6733C53.8753 21.9542 51.6607 19.75 48.9289 19.75C46.197 19.75 43.9824 21.9542 43.9824 24.6733C43.9824 27.3923 46.197 29.5965 48.9289 29.5965Z" fill="url(#paint3_linear_3190_17133)"/>
<path d="M58.433 41.8571H39.423C38.744 41.8571 38.2591 41.2779 38.3561 40.6987C38.938 35.3893 43.4965 31.2383 48.928 31.2383C54.3594 31.2383 58.9179 35.3893 59.4999 40.6987C59.5969 41.2779 59.1119 41.8571 58.433 41.8571Z" fill="#C2C2C2"/>
<defs>
<linearGradient id="paint0_linear_3190_17133" x1="14.8696" y1="17.3715" x2="15.2717" y2="33.2595" gradientUnits="userSpaceOnUse">
<stop stop-color="#008300"/>
<stop offset="1" stop-color="#005700"/>
</linearGradient>
<linearGradient id="paint1_linear_3190_17133" x1="32.188" y1="5.98804" x2="32.6705" y2="25.0536" gradientUnits="userSpaceOnUse">
<stop stop-color="#008300"/>
<stop offset="1" stop-color="#005700"/>
</linearGradient>
<linearGradient id="paint2_linear_3190_17133" x1="32.0797" y1="26.4519" x2="32.2993" y2="43.6925" gradientUnits="userSpaceOnUse">
<stop stop-color="#008300"/>
<stop offset="1" stop-color="#005700"/>
</linearGradient>
<linearGradient id="paint3_linear_3190_17133" x1="48.764" y1="17.1268" x2="49.0795" y2="29.5927" gradientUnits="userSpaceOnUse">
<stop stop-color="#008300"/>
<stop offset="1" stop-color="#005700"/>
</linearGradient>
</defs>
</svg>
