<svg width="122" height="88" viewBox="0 0 122 88" fill="none" xmlns="http://www.w3.org/2000/svg">
<path opacity="0.6" d="M1.1011 81.7247C6.23955 76.3497 10.2769 71.3412 13.2132 66.6991C16.1494 62.057 17.6175 58.2701 17.6175 55.3383C17.6175 53.628 17.0058 52.04 15.7824 50.574C14.8036 49.1081 13.2132 47.5201 11.011 45.8098C7.58533 43.1223 4.89376 40.3127 2.93626 37.3808C0.978754 34.449 0 30.5399 0 25.6535C0 18.0796 2.32452 11.9716 6.9736 7.32957C11.6227 2.44319 17.4952 0 24.5912 0C32.1765 0 38.2937 2.44319 42.9428 7.32957C47.8365 11.9716 50.2834 18.0796 50.2834 25.6535C50.2834 35.1819 46.246 45.6877 38.1713 57.1707C30.3413 68.4093 19.8197 78.4264 6.60657 87.2219L1.1011 81.7247ZM72.3053 81.7247C77.4438 76.3497 81.4811 71.3412 84.4174 66.6991C87.3537 62.057 88.8218 58.2701 88.8218 55.3383C88.8218 53.628 88.2101 52.04 86.9866 50.574C86.0079 49.1081 84.4174 47.5201 82.2152 45.8098C78.7896 43.1223 76.098 40.3127 74.1405 37.3808C72.183 34.449 71.2042 30.5399 71.2042 25.6535C71.2042 18.0796 73.5288 11.9716 78.1779 7.32957C82.8269 2.44319 88.6994 0 95.7954 0C103.381 0 109.498 2.44319 114.147 7.32957C119.041 11.9716 121.488 18.0796 121.488 25.6535C121.488 35.1819 117.45 45.6877 109.376 57.1707C101.546 68.4093 91.024 78.4264 77.8108 87.2219L72.3053 81.7247Z" fill="#EDF0FD"/>
</svg>
