<svg width="61" height="60" viewBox="0 0 61 60" fill="none" xmlns="http://www.w3.org/2000/svg">
<path d="M30.9004 49.5977C40.8416 49.5977 48.9004 41.5388 48.9004 31.5977C48.9004 21.6566 40.8416 13.5977 30.9004 13.5977C20.9593 13.5977 12.9004 21.6566 12.9004 31.5977C12.9004 41.5388 20.9593 49.5977 30.9004 49.5977Z" stroke="url(#paint0_linear_3190_17119)" stroke-width="4" stroke-miterlimit="10" stroke-linecap="round"/>
<path d="M30.9004 49.5977C35.2004 49.5977 38.7004 41.4977 38.7004 31.5977C38.7004 21.6977 35.2004 13.5977 30.9004 13.5977" stroke="url(#paint1_linear_3190_17119)" stroke-width="4" stroke-miterlimit="10" stroke-linecap="round"/>
<path d="M30.9004 38.5992C40.8416 38.5992 48.9004 35.3757 48.9004 31.3992C48.9004 27.4228 40.8416 24.1992 30.9004 24.1992C20.9593 24.1992 12.9004 27.4228 12.9004 31.3992C12.9004 35.3757 20.9593 38.5992 30.9004 38.5992Z" stroke="url(#paint2_linear_3190_17119)" stroke-width="4" stroke-miterlimit="10" stroke-linecap="round"/>
<path d="M26.1992 42.5C29.2368 42.5 31.6992 40.0376 31.6992 37C31.6992 33.9624 29.2368 31.5 26.1992 31.5C23.1616 31.5 20.6992 33.9624 20.6992 37C20.6992 40.0376 23.1616 42.5 26.1992 42.5Z" fill="#C2C2C2"/>
<path d="M26.1992 33.5C28.0992 33.5 29.6992 35.1 29.6992 37C29.6992 38.9 28.0992 40.5 26.1992 40.5C24.2992 40.5 22.6992 38.9 22.6992 37C22.6992 35.1 24.1992 33.5 26.1992 33.5ZM26.1992 29.5C22.0992 29.5 18.6992 32.9 18.6992 37C18.6992 41.1 22.0992 44.5 26.1992 44.5C30.2992 44.5 33.6992 41.1 33.6992 37C33.6992 32.9 30.2992 29.5 26.1992 29.5Z" fill="white"/>
<path d="M30.9 4C15.8 4 3.5 16.3 3.5 31.4" stroke="url(#paint3_linear_3190_17119)" stroke-width="4" stroke-miterlimit="10"/>
<path d="M42.1992 6.39844C47.9992 8.99844 52.6992 13.6984 55.4992 19.3984" stroke="url(#paint4_linear_3190_17119)" stroke-width="4" stroke-miterlimit="10"/>
<path d="M32.7988 38.3024V52.4024C32.7988 53.7024 33.8988 54.7024 35.0988 54.7024H46.9988L52.3988 59.2024C52.7988 59.5024 53.3988 59.2024 53.3988 58.7024V54.7024H56.8988C58.1988 54.7024 59.1988 53.6024 59.1988 52.4024V38.3024C59.1988 37.0024 58.0988 36.0024 56.8988 36.0024H35.0988C33.7988 35.9024 32.7988 37.0024 32.7988 38.3024Z" fill="#C2C2C2"/>
<path d="M46 49.4023C47.1046 49.4023 48 48.5069 48 47.4023C48 46.2978 47.1046 45.4023 46 45.4023C44.8954 45.4023 44 46.2978 44 47.4023C44 48.5069 44.8954 49.4023 46 49.4023Z" fill="white"/>
<path d="M51.6992 49.4023C52.8038 49.4023 53.6992 48.5069 53.6992 47.4023C53.6992 46.2978 52.8038 45.4023 51.6992 45.4023C50.5947 45.4023 49.6992 46.2978 49.6992 47.4023C49.6992 48.5069 50.5947 49.4023 51.6992 49.4023Z" fill="white"/>
<path d="M40.1992 49.4023C41.3038 49.4023 42.1992 48.5069 42.1992 47.4023C42.1992 46.2978 41.3038 45.4023 40.1992 45.4023C39.0947 45.4023 38.1992 46.2978 38.1992 47.4023C38.1992 48.5069 39.0947 49.4023 40.1992 49.4023Z" fill="white"/>
<defs>
<linearGradient id="paint0_linear_3190_17119" x1="30.3004" y1="4.00692" x2="31.4592" y2="49.5834" gradientUnits="userSpaceOnUse">
<stop stop-color="#008300"/>
<stop offset="1" stop-color="#005700"/>
</linearGradient>
<linearGradient id="paint1_linear_3190_17119" x1="34.6704" y1="4.00692" x2="39.9496" y2="48.9934" gradientUnits="userSpaceOnUse">
<stop stop-color="#008300"/>
<stop offset="1" stop-color="#005700"/>
</linearGradient>
<linearGradient id="paint2_linear_3190_17119" x1="30.3004" y1="20.3629" x2="30.4859" y2="38.6034" gradientUnits="userSpaceOnUse">
<stop stop-color="#008300"/>
<stop offset="1" stop-color="#005700"/>
</linearGradient>
<linearGradient id="paint3_linear_3190_17119" x1="16.7433" y1="-3.29961" x2="17.6253" y2="31.3892" gradientUnits="userSpaceOnUse">
<stop stop-color="#008300"/>
<stop offset="1" stop-color="#005700"/>
</linearGradient>
<linearGradient id="paint4_linear_3190_17119" x1="48.6276" y1="2.93511" x2="49.0366" y2="19.3938" gradientUnits="userSpaceOnUse">
<stop stop-color="#008300"/>
<stop offset="1" stop-color="#005700"/>
</linearGradient>
</defs>
</svg>
