<svg width="61" height="60" viewBox="0 0 61 60" fill="none" xmlns="http://www.w3.org/2000/svg">
<path d="M29.9888 48.9129C39.1321 48.9129 46.5441 41.2959 46.5441 31.8998C46.5441 22.5038 39.1321 14.8867 29.9888 14.8867C20.8456 14.8867 13.4336 22.5038 13.4336 31.8998C13.4336 41.2959 20.8456 48.9129 29.9888 48.9129Z" stroke="url(#paint0_linear_3190_17023)" stroke-width="4" stroke-miterlimit="10" stroke-linecap="round"/>
<path d="M29.988 48.9129C25.9952 48.9129 22.8789 41.3071 22.8789 31.8998C22.8789 22.4926 26.0926 14.8867 29.988 14.8867" stroke="url(#paint1_linear_3190_17023)" stroke-width="4" stroke-miterlimit="10" stroke-linecap="round"/>
<path d="M29.9888 38.505C39.1321 38.505 46.5441 35.4582 46.5441 31.6998C46.5441 27.9413 39.1321 24.8945 29.9888 24.8945C20.8456 24.8945 13.4336 27.9413 13.4336 31.6998C13.4336 35.4582 20.8456 38.505 29.9888 38.505Z" stroke="url(#paint2_linear_3190_17023)" stroke-width="4" stroke-miterlimit="10" stroke-linecap="round"/>
<path d="M42.7461 42.4046C38.0717 42.4046 34.3711 38.5016 34.3711 33.798C34.3711 29.0944 38.1691 25.1914 42.7461 25.1914C47.3232 25.1914 51.2186 28.9943 51.2186 33.6979C51.2186 38.4016 47.4206 42.4046 42.7461 42.4046Z" fill="url(#paint3_linear_3190_17023)"/>
<path d="M42.7452 26.8919C46.4458 26.8919 49.4647 29.9943 49.4647 33.7972C49.4647 37.6001 46.4458 40.7025 42.7452 40.7025C39.0446 40.7025 36.0257 37.6001 36.0257 33.7972C36.0257 29.9943 39.0446 26.8919 42.7452 26.8919ZM42.7452 23.2891C37.1943 23.2891 32.6172 27.9927 32.6172 33.6971C32.6172 39.4015 37.1943 44.1051 42.7452 44.1051C48.296 44.1051 52.8731 39.4015 52.8731 33.6971C52.8731 27.9927 48.3934 23.2891 42.7452 23.2891Z" fill="white"/>
<path d="M55.6987 57.8177H29.892C29.0155 57.8177 28.3338 57.017 28.4312 56.1163C29.2103 48.7106 35.3455 42.9062 42.844 42.9062C50.3426 42.9062 56.3804 48.7106 57.2568 56.1163C57.2568 57.017 56.5752 57.8177 55.6987 57.8177Z" fill="#D5D5D5"/>
<path d="M29.9884 4.77734C15.3808 4.77734 3.5 16.8867 3.5 31.8982" stroke="url(#paint4_linear_3190_17023)" stroke-width="4" stroke-miterlimit="10"/>
<path d="M56.3794 12.9835L58.3271 12.0828C58.814 11.8826 58.814 11.1821 58.3271 10.9819L56.0872 9.88107C53.8474 8.78022 52.0945 6.97883 51.0233 4.67706L49.952 2.37529C49.7573 1.8749 49.0756 1.8749 48.8808 2.37529L47.8096 4.67706C46.7384 6.97883 44.9855 8.78022 42.7456 9.88107L40.5058 10.8818C40.0189 11.082 40.0189 11.7825 40.5058 11.9827L42.4535 12.8834C44.6933 13.9842 46.4462 15.7856 47.5175 18.0874L48.8808 21.1898C49.0756 21.6902 49.7573 21.6902 49.952 21.1898L51.3154 18.0874C52.3866 15.8857 54.2369 13.9842 56.3794 12.9835Z" fill="#D5D5D5"/>
<defs>
<linearGradient id="paint0_linear_3190_17023" x1="29.437" y1="5.82182" x2="30.5626" y2="48.8979" gradientUnits="userSpaceOnUse">
<stop stop-color="#008300"/>
<stop offset="1" stop-color="#005700"/>
</linearGradient>
<linearGradient id="paint1_linear_3190_17023" x1="26.315" y1="5.82182" x2="31.4842" y2="48.2983" gradientUnits="userSpaceOnUse">
<stop stop-color="#008300"/>
<stop offset="1" stop-color="#005700"/>
</linearGradient>
<linearGradient id="paint2_linear_3190_17023" x1="29.437" y1="21.2686" x2="29.6172" y2="38.5089" gradientUnits="userSpaceOnUse">
<stop stop-color="#008300"/>
<stop offset="1" stop-color="#005700"/>
</linearGradient>
<linearGradient id="paint3_linear_3190_17023" x1="42.5141" y1="20.6056" x2="43.0802" y2="42.3972" gradientUnits="userSpaceOnUse">
<stop stop-color="#008300"/>
<stop offset="1" stop-color="#005700"/>
</linearGradient>
<linearGradient id="paint4_linear_3190_17023" x1="16.3027" y1="-2.4479" x2="17.1966" y2="31.8864" gradientUnits="userSpaceOnUse">
<stop stop-color="#008300"/>
<stop offset="1" stop-color="#005700"/>
</linearGradient>
</defs>
</svg>
