<svg width="83" height="85" viewBox="0 0 83 85" fill="none" xmlns="http://www.w3.org/2000/svg">
<ellipse cx="41.5276" cy="42.1985" rx="41.0921" ry="42.1594" fill="#EDEFFF"/>
<path d="M41.2633 20.2539C29.0408 20.2539 19.1211 30.1736 19.1211 42.3961C19.1211 54.6185 29.0408 64.5382 41.2633 64.5382C53.4857 64.5382 63.4054 54.6185 63.4054 42.3961C63.4054 30.1736 53.4857 20.2539 41.2633 20.2539ZM49.2566 34.292C51.6258 34.292 53.53 36.1963 53.53 38.5655C53.53 40.9347 51.6258 42.8389 49.2566 42.8389C46.8874 42.8389 44.9831 40.9347 44.9831 38.5655C44.961 36.1963 46.8874 34.292 49.2566 34.292ZM35.9713 30.7936C38.8498 30.7936 41.1968 33.1406 41.1968 36.0191C41.1968 38.8976 38.8498 41.2447 35.9713 41.2447C33.0928 41.2447 30.7457 38.8976 30.7457 36.0191C30.7457 33.1185 33.0707 30.7936 35.9713 30.7936ZM35.9713 51.0094V59.3127C30.6572 57.652 26.4502 53.5557 24.5902 48.3302C26.9151 45.8503 32.7164 44.5881 35.9713 44.5881C37.1448 44.5881 38.6283 44.7653 40.1783 45.0753C36.547 47.0016 35.9713 49.548 35.9713 51.0094ZM41.2633 60.1098C40.6654 60.1098 40.0897 60.0877 39.514 60.0212V51.0094C39.514 47.8652 46.0238 46.2931 49.2566 46.2931C51.6258 46.2931 55.7221 47.1566 57.7592 48.8394C55.1685 55.4157 48.7695 60.1098 41.2633 60.1098Z" fill="#0047FF"/>
</svg>
