<svg width="83" height="85" viewBox="0 0 83 85" fill="none" xmlns="http://www.w3.org/2000/svg">
<ellipse cx="41.5843" cy="42.1985" rx="41.0921" ry="42.1594" fill="#FFEDF5"/>
<path d="M42.7399 30.8124V21.918H20.5039V61.9427H64.9759V30.8124H42.7399ZM29.3983 57.4955H24.9511V53.0483H29.3983V57.4955ZM29.3983 48.6011H24.9511V44.1539H29.3983V48.6011ZM29.3983 39.7067H24.9511V35.2596H29.3983V39.7067ZM29.3983 30.8124H24.9511V26.3652H29.3983V30.8124ZM38.2927 57.4955H33.8455V53.0483H38.2927V57.4955ZM38.2927 48.6011H33.8455V44.1539H38.2927V48.6011ZM38.2927 39.7067H33.8455V35.2596H38.2927V39.7067ZM38.2927 30.8124H33.8455V26.3652H38.2927V30.8124ZM60.5287 57.4955H42.7399V53.0483H47.1871V48.6011H42.7399V44.1539H47.1871V39.7067H42.7399V35.2596H60.5287V57.4955ZM56.0815 39.7067H51.6343V44.1539H56.0815V39.7067ZM56.0815 48.6011H51.6343V53.0483H56.0815V48.6011Z" fill="#C31162"/>
</svg>
