<svg width="1914" height="893" viewBox="0 0 1914 893" fill="none" xmlns="http://www.w3.org/2000/svg">
<g clip-path="url(#clip0_2951_18207)">
<rect width="1920" height="893" transform="translate(-6)" fill="#F8FFF4"/>
<rect opacity="0.1" x="-188" y="618.508" width="20" height="632.468" transform="rotate(-46.0771 -188 618.508)" fill="#005700"/>
<rect opacity="0.1" x="-145.57" y="595.883" width="20" height="632.468" transform="rotate(-46.0771 -145.57 595.883)" fill="#005700"/>
<rect opacity="0.02" x="-448" y="495.043" width="56.9798" height="632.468" transform="rotate(-46.0771 -448 495.043)" fill="#005700"/>
<rect opacity="0.1" x="-60.7129" y="550.625" width="20" height="632.468" transform="rotate(-46.0771 -60.7129 550.625)" fill="#004900"/>
<rect opacity="0.1" x="1490" y="-124.711" width="20" height="632.468" transform="rotate(-46.0771 1490 -124.711)" fill="#005700"/>
<rect opacity="0.1" x="1532.43" y="-138.34" width="20" height="632.468" transform="rotate(-46.0771 1532.43 -138.34)" fill="#005700"/>
<rect opacity="0.1" x="1574.86" y="-145.969" width="20" height="632.468" transform="rotate(-46.0771 1574.86 -145.969)" fill="#005700"/>
<rect opacity="0.1" x="1617.29" y="-153.594" width="20" height="632.468" transform="rotate(-46.0771 1617.29 -153.594)" fill="#004900"/>
<rect opacity="0.1" x="-20" y="653.406" width="20" height="632.468" transform="rotate(-46.0771 -20 653.406)" fill="#005700"/>
</g>
<defs>
<clipPath id="clip0_2951_18207">
<rect width="1920" height="893" fill="white" transform="translate(-6)"/>
</clipPath>
</defs>
</svg>
