<svg width="143" height="101" viewBox="0 0 143 101" fill="none" xmlns="http://www.w3.org/2000/svg">
<path opacity="0.6" d="M1.29491 94.5828C7.33784 88.3622 12.0859 82.5656 15.539 77.1932C18.9921 71.8208 20.7186 67.438 20.7186 64.0449C20.7186 62.0656 19.9992 60.2276 18.5604 58.5311C17.4094 56.8345 15.539 54.9966 12.9491 53.0173C8.92052 49.907 5.75517 46.6552 3.45311 43.2621C1.15104 39.869 -1.5845e-07 35.3449 -1.33098e-07 29.6897C-9.38025e-08 20.9242 2.73369 13.8552 8.20111 8.48276C13.6685 2.82759 20.5747 9.22361e-08 28.9197 1.29647e-07C37.8403 1.69637e-07 45.0342 2.82759 50.5016 8.48276C56.2568 13.8552 59.1344 20.9242 59.1344 29.6897C59.1344 40.7173 54.3864 52.8759 44.8903 66.1656C35.6821 79.1725 23.3084 90.7656 7.76948 100.945L1.29491 94.5828ZM85.0327 94.5828C91.0756 88.3622 95.8236 82.5656 99.2767 77.1932C102.73 71.8208 104.456 67.438 104.456 64.0449C104.456 62.0656 103.737 60.2276 102.298 58.5311C101.147 56.8345 99.2767 54.9966 96.6869 53.0173C92.6583 49.907 89.493 46.6552 87.1909 43.2621C84.8888 39.869 83.7378 35.3449 83.7378 29.6897C83.7378 20.9242 86.4715 13.8552 91.9389 8.48276C97.4063 2.82759 104.313 4.67631e-07 112.658 5.05041e-07C121.578 5.45032e-07 128.772 2.82759 134.239 8.48276C139.995 13.8552 142.872 20.9242 142.872 29.6897C142.872 40.7173 138.124 52.8759 128.628 66.1656C119.42 79.1725 107.046 90.7656 91.5073 100.945L85.0327 94.5828Z" fill="#004900"/>
</svg>
