<svg width="1923" height="1069" viewBox="0 0 1923 1069" fill="none" xmlns="http://www.w3.org/2000/svg">
<g clip-path="url(#clip0_3762_17017)">
<rect width="1923" height="1069" fill="#005700"/>
<rect opacity="0.3" x="-182" y="618.508" width="20" height="632.468" transform="rotate(-46.0771 -182 618.508)" fill="#005700"/>
<rect opacity="0.2" x="-182" y="618.508" width="20" height="632.468" transform="rotate(-46.0771 -182 618.508)" fill="#005700"/>
<rect opacity="0.3" x="-139.57" y="595.883" width="20" height="632.468" transform="rotate(-46.0771 -139.57 595.883)" fill="#005700"/>
<rect opacity="0.2" width="26.1083" height="822.568" transform="matrix(0.657262 -0.753662 0.684992 0.728551 -139.57 617.719)" fill="#68AC48"/>
<rect opacity="0.2" width="26.1083" height="822.568" transform="matrix(0.657262 -0.753662 0.684992 0.728551 -87.0918 586.805)" fill="#68AC48"/>
<rect opacity="0.2" width="26.1083" height="822.568" transform="matrix(0.657262 -0.753662 0.684992 0.728551 -34.6123 555.895)" fill="#68AC48"/>
<rect opacity="0.2" x="1473" y="-93.7109" width="20" height="632.468" transform="rotate(-46.0771 1473 -93.7109)" fill="#68AC48"/>
<rect opacity="0.2" x="1515.43" y="-116.34" width="20" height="632.468" transform="rotate(-46.0771 1515.43 -116.34)" fill="#68AC48"/>
<rect opacity="0.2" x="1556.86" y="-138.969" width="20" height="632.468" transform="rotate(-46.0771 1556.86 -138.969)" fill="#68AC48"/>
<rect opacity="0.2" x="1599.29" y="-161.594" width="20" height="632.468" transform="rotate(-46.0771 1599.29 -161.594)" fill="#68AC48"/>
</g>
<defs>
<clipPath id="clip0_3762_17017">
<rect width="1923" height="1069" fill="white"/>
</clipPath>
</defs>
</svg>
